<svg width="585" height="520" viewBox="0 0 585 520" fill="none" xmlns="http://www.w3.org/2000/svg">
<g filter="url(#filter0_d_45_2163)">
<path fill-rule="evenodd" clip-rule="evenodd" d="M391.466 403.865C368.938 423.952 351.339 449.585 323.484 461.307C290.958 474.996 252.816 490.545 220.06 476C187.27 461.44 186.936 411.987 159.59 388.532C121.464 355.831 44.9231 362.805 31.7189 314.459C19.2914 268.956 86.8488 242.342 108.422 201.186C127.29 165.193 115.164 108.956 150.14 88.5453C186.221 67.4901 232.596 113.713 273.565 104.815C321.258 94.456 355.68 9.86984 398.609 34.578C444.574 61.0335 390.695 144.812 420.098 189.155C446.18 228.488 536.455 200.037 545.5 246.15C554.274 290.883 482.906 315.867 451.152 347.478C431.416 367.124 412.247 385.337 391.466 403.865Z" fill="#9550E5" fill-opacity="0.08" shape-rendering="crispEdges"/>
<path fill-rule="evenodd" clip-rule="evenodd" d="M391.466 403.865C368.938 423.952 351.339 449.585 323.484 461.307C290.958 474.996 252.816 490.545 220.06 476C187.27 461.44 186.936 411.987 159.59 388.532C121.464 355.831 44.9231 362.805 31.7189 314.459C19.2914 268.956 86.8488 242.342 108.422 201.186C127.29 165.193 115.164 108.956 150.14 88.5453C186.221 67.4901 232.596 113.713 273.565 104.815C321.258 94.456 355.68 9.86984 398.609 34.578C444.574 61.0335 390.695 144.812 420.098 189.155C446.18 228.488 536.455 200.037 545.5 246.15C554.274 290.883 482.906 315.867 451.152 347.478C431.416 367.124 412.247 385.337 391.466 403.865Z" stroke="#5142FB" stroke-opacity="0.5" stroke-width="4" shape-rendering="crispEdges"/>
</g>
<defs>
<filter id="filter0_d_45_2163" x="0.20224" y="0.0766602" width="584.042" height="519.766" filterUnits="userSpaceOnUse" color-interpolation-filters="sRGB">
<feFlood flood-opacity="0" result="BackgroundImageFix"/>
<feColorMatrix in="SourceAlpha" type="matrix" values="0 0 0 0 0 0 0 0 0 0 0 0 0 0 0 0 0 0 127 0" result="hardAlpha"/>
<feOffset dx="4" dy="4"/>
<feGaussianBlur stdDeviation="16"/>
<feComposite in2="hardAlpha" operator="out"/>
<feColorMatrix type="matrix" values="0 0 0 0 0.584314 0 0 0 0 0.313726 0 0 0 0 0.898039 0 0 0 0.15 0"/>
<feBlend mode="normal" in2="BackgroundImageFix" result="effect1_dropShadow_45_2163"/>
<feBlend mode="normal" in="SourceGraphic" in2="effect1_dropShadow_45_2163" result="shape"/>
</filter>
</defs>
</svg>
